<svg height="121" viewBox="0 0 244.38 120.24" width="245" xmlns="http://www.w3.org/2000/svg"><path d="m240.8 92.67 2.83 3.75s-8.32 7.79-22.83 13.64a36.4184 36.4184 0 0 0 -.38-5.27 89.50381 89.50381 0 0 0 20.38-12.12z" fill="#334a5a"/><path d="m229.09 77.19 11.71 15.48a89.50381 89.50381 0 0 1 -20.38 12.12 73.16334 73.16334 0 0 0 -4.47-16.56 49.05529 49.05529 0 0 0 13.14-11.04z" fill="#1a4d81"/><path d="m226.22 73.4 2.87 3.79a49.05529 49.05529 0 0 1 -13.14 11.04c-.58-1.45-1.16-2.73-1.7-3.76a39.49076 39.49076 0 0 0 11.97-11.07z" fill="#334a5a"/><path d="m220.42 104.79a36.4184 36.4184 0 0 1 .38 5.27 86.34032 86.34032 0 0 1 -32.34 6.32 45.91692 45.91692 0 0 1 -6.06-.4 15.87461 15.87461 0 0 0 4.69-4.62c12.17.83 23.87-2.44 33.33-6.57z" fill="#334a5a"/><path d="m215.95 88.23a73.16334 73.16334 0 0 1 4.47 16.56c-9.46 4.13-21.16 7.4-33.33 6.57 3.37-4.9 4.86-11.53 5.19-15.93a54.83218 54.83218 0 0 0 23.67-7.2z" fill="#1a4d81"/><path d="m214.25 84.47c.54 1.03 1.12 2.31 1.7 3.76a54.83218 54.83218 0 0 1 -23.67 7.2 15.46348 15.46348 0 0 0 -.07-3.81 49.11619 49.11619 0 0 0 22.03-7.15z" fill="#334a5a"/><path d="m192.27 95.43h.01c-.33 4.4-1.82 11.03-5.19 15.93h-.01a50.7419 50.7419 0 0 1 -25.62-8.87 38.85672 38.85672 0 0 1 -4.83-4.03 29.49853 29.49853 0 0 0 9.09-12.09c6.67 5.35 13.96 9.27 21.37 9.27 1.79 0 3.51-.07 5.18-.21z" fill="#2768ab"/><path d="m187.08 111.36h.01a15.87461 15.87461 0 0 1 -4.69 4.62h-.01c-11.71-1.55-21.15-7.49-29.03-14.99 1.1-.81 2.19-1.64 3.27-2.53a38.85672 38.85672 0 0 0 4.83 4.03 50.7419 50.7419 0 0 0 25.62 8.87z" fill="#334a5a"/><path d="m192.21 91.62a15.46348 15.46348 0 0 1 .07 3.81h-.01c-1.67.14-3.39.21-5.18.21-7.41 0-14.7-3.92-21.37-9.27a37.50053 37.50053 0 0 0 1.42-3.98c6.55 5.68 13.11 9.45 19.95 9.45 1.77 0 3.47-.08 5.11-.22z" fill="#334a5a"/><path d="m167.14 82.39a37.50053 37.50053 0 0 1 -1.42 3.98c-8.98-7.21-16.81-17.01-22.24-23.31a49.69868 49.69868 0 0 0 -.13-5.84c8.22 8.98 16 18.42 23.79 25.17z" fill="#334a5a"/><path d="m156.63 98.46c-1.08.89-2.17 1.72-3.27 2.53h-.01a128.83473 128.83473 0 0 1 -15.58-18.6h.01a13.98183 13.98183 0 0 0 2.3-3.54c5.6 7.29 11.32 14.6 16.55 19.61z" fill="#334a5a"/><path d="m165.72 86.37a29.49853 29.49853 0 0 1 -9.09 12.09c-5.23-5.01-10.95-12.32-16.55-19.61a41.63046 41.63046 0 0 0 3.4-15.79c5.43 6.3 13.26 16.1 22.24 23.31z" fill="#1a4d81"/><path d="m143.35 57.22a49.69868 49.69868 0 0 1 .13 5.84c-.87-1.01-1.68-1.93-2.42-2.74-5.81-6.34-16.36-16.64-25.78-22.21q-1.05-2.655-2.34-5.16c11.15 4.42 21.06 14.04 30.41 24.26z" fill="#334a5a"/><path d="m140.08 78.84v.01a13.98183 13.98183 0 0 1 -2.3 3.54h-.01c-7.27-10.17-12.93-19.43-18.27-22.39 0-1.71-.08-3.39-.23-5.06 5.58 3.83 13.06 13.85 20.81 23.9z" fill="#334a5a"/><path d="m141.06 60.32c.74.81 1.55 1.73 2.42 2.74a41.63046 41.63046 0 0 1 -3.4 15.79v-.01c-7.75-10.05-15.23-20.07-20.81-23.9a58.24 58.24 0 0 0 -3.99-16.83c9.42 5.57 19.97 15.87 25.78 22.21z" fill="#1a4d81"/><g fill="#334a5a"><path d="m78.17 83.69a20.23413 20.23413 0 0 0 -36.1001 0 15.78531 15.78531 0 0 0 -1.8 7.15c0 9.03 8.89014 10.34 19.86011 10.34 10.96 0 19.8501-1.31 19.8501-10.34a15.67071 15.67071 0 0 0 -1.81011-7.15z"/><path d="m90.84 40.26a15.784 15.784 0 0 0 -7.1499 1.8 20.24207 20.24207 0 0 0 0 36.11 15.6687 15.6687 0 0 0 7.1499 1.81c9.03 0 10.3501-8.88995 10.3501-19.86s-1.3201-19.86-10.3501-19.86z"/><path d="m60.13 19.06c-10.97 0-19.86011 1.31-19.86011 10.34a15.74489 15.74489 0 0 0 1.8 7.14 20.234 20.234 0 0 0 36.11011 0 15.74489 15.74489 0 0 0 1.8-7.14c.00009-9.03-8.89-10.34-19.85-10.34z"/><path d="m36.55016 42.06a15.74462 15.74462 0 0 0 -7.14016-1.8c-9.03 0-10.3501 8.89-10.3501 19.86s1.3201 19.86 10.3501 19.86a15.62963 15.62963 0 0 0 7.14014-1.81 20.234 20.234 0 0 0 0-36.11z"/><path d="m60.13 55.01a5.11 5.11 0 1 1 -5.12 5.11 5.11279 5.11279 0 0 1 5.12-5.11z"/></g><path d="m60.13 11.18a48.94 48.94 0 1 1 -48.94 48.94 48.93635 48.93635 0 0 1 48.94-48.94zm41.06 48.94c0-10.97-1.32-19.86-10.35-19.86a15.78391 15.78391 0 0 0 -7.15 1.8 20.24216 20.24216 0 0 0 0 36.11 15.66945 15.66945 0 0 0 7.15 1.81c9.03 0 10.35-8.89 10.35-19.86zm-23.01-23.58a15.74353 15.74353 0 0 0 1.8-7.14c0-9.03-8.89-10.34-19.85-10.34-10.97 0-19.86 1.31-19.86 10.34a15.74353 15.74353 0 0 0 1.8 7.14 20.23392 20.23392 0 0 0 36.11 0zm1.8 54.3a15.66945 15.66945 0 0 0 -1.81-7.15 20.234 20.234 0 0 0 -36.1 0 15.78391 15.78391 0 0 0 -1.8 7.15c0 9.03 8.89 10.34 19.86 10.34 10.96 0 19.85-1.31 19.85-10.34zm-14.74-30.72a5.115 5.115 0 1 0 -5.11 5.11 5.11279 5.11279 0 0 0 5.11-5.11zm-17.59 0a20.59078 20.59078 0 0 0 -11.1-18.06 15.74353 15.74353 0 0 0 -7.14-1.8c-9.03 0-10.35 8.89-10.35 19.86s1.32 19.86 10.35 19.86a15.62941 15.62941 0 0 0 7.14-1.81 20.56283 20.56283 0 0 0 11.1-18.05z" fill="#86aeba"/><path d="m119.5 60v.12a59.314 59.314 0 1 1 -6.56-27.17q1.29 2.505 2.34 5.16a58.24 58.24 0 0 1 3.99 16.83c.15 1.67.23 3.35.23 5.06zm-10.44.12a48.935 48.935 0 1 0 -48.93 48.94 48.93635 48.93635 0 0 0 48.93-48.94z" fill="#5499af"/><path d="m60.13011 120.24a60.12012 60.12012 0 1 1 53.47632-87.63379h.00024c.86792 1.68555 1.66553 3.44434 2.37085 5.22852a58.95541 58.95541 0 0 1 4.0398 17.042c.15649 1.74316.23266 3.41992.23266 5.123v.12011a60.18809 60.18809 0 0 1 -60.11987 60.12016zm0-118.74023a58.62012 58.62012 0 1 0 58.61989 58.62011v-.12011c0-1.65821-.07422-3.291-.227-4.99219a57.46524 57.46524 0 0 0 -3.93872-16.61719c-.68872-1.74219-1.46582-3.456-2.311-5.09668a58.47959 58.47959 0 0 0 -52.14317-31.79394z"/><path d="m60.13011 109.56031a49.43994 49.43994 0 1 1 49.42989-49.44043 49.49616 49.49616 0 0 1 -49.42989 49.44043zm0-97.87988a48.43994 48.43994 0 1 0 48.42989 48.43945 48.49448 48.49448 0 0 0 -48.42989-48.43945z"/><path d="m60.13011 65.73024a5.61036 5.61036 0 1 1 5.60989-5.61036 5.62153 5.62153 0 0 1 -5.60989 5.61036zm0-10.22071a4.61036 4.61036 0 1 0 4.60989 4.61035 4.62053 4.62053 0 0 0 -4.60989-4.61035z"/><path d="m60.13011 48.14039a21.19667 21.19667 0 0 1 -18.5061-11.375 16.319 16.319 0 0 1 -1.854-7.36523c0-10.002 10.50952-10.83985 20.36011-10.83985 9.8457 0 20.34985.83789 20.34985 10.83985a16.32465 16.32465 0 0 1 -1.85473 7.36719 21.1882 21.1882 0 0 1 -18.49513 11.37304zm0-28.58008c-11.95239 0-19.36011 1.64649-19.36011 9.83985a15.32134 15.32134 0 0 0 1.74536 6.91211 19.73341 19.73341 0 0 0 35.21851.002l.00073-.002a15.32121 15.32121 0 0 0 1.7454-6.91211c0-8.19336-7.40385-9.83985-19.34989-9.83985z"/><path d="m29.4099 80.48024c-10.01148 0-10.8499-10.50977-10.8499-20.36036s.83838-20.36035 10.84986-20.36035a16.335 16.335 0 0 1 7.366 1.85449 20.73365 20.73365 0 0 1 -.00049 37.002 16.21512 16.21512 0 0 1 -7.36547 1.86422zm0-39.72071c-8.17481 0-9.84986 7.73926-9.84986 19.36035s1.675 19.36036 9.84986 19.36036a15.21166 15.21166 0 0 0 6.9111-1.75489 19.7335 19.7335 0 0 0 .0032-35.21875l-.00171-.001a15.32175 15.32175 0 0 0 -6.91259-1.74607z"/><path d="m60.13011 101.68043c-9.85059 0-20.36011-.83789-20.36011-10.84082a16.34525 16.34525 0 0 1 1.85474-7.37695 20.73416 20.73416 0 0 1 36.991.001 16.22406 16.22406 0 0 1 1.86425 7.376c.00001 10.00288-10.50418 10.84077-20.34988 10.84077zm0-28.58008a20.20911 20.20911 0 0 0 -17.6145 10.81641l-.00025.001a15.33871 15.33871 0 0 0 -1.74536 6.92185c0 8.19434 7.40772 9.84082 19.36011 9.84082 11.946 0 19.34985-1.64648 19.34985-9.84082a15.22532 15.22532 0 0 0 -1.75439-6.91992 20.16768 20.16768 0 0 0 -17.59546-10.81934z"/><path d="m90.84007 80.48024a16.24626 16.24626 0 0 1 -7.37817-1.86524 20.74181 20.74181 0 0 1 .00122-37 16.34382 16.34382 0 0 1 7.37695-1.85547c10.01148 0 10.84985 10.50977 10.84985 20.36035s-.83837 20.36036-10.84985 20.36036zm0-39.72071a15.341 15.341 0 0 0 -6.92261 1.7461 19.74135 19.74135 0 0 0 -.00122 35.21777l.00269.002a15.23071 15.23071 0 0 0 6.92114 1.75489c8.17481 0 9.84985-7.73926 9.84985-19.36036s-1.67504-19.3604-9.84985-19.3604z"/><path d="m188.45994 117.12965a46.34835 46.34835 0 0 1 -6.15869-.40625c-10.52685-1.3916-20.13916-6.33984-29.39209-15.12695a.67342.67342 0 0 1 -.07617-.06348 130.94673 130.94673 0 0 1 -15.67309-18.70605c-1.41016-1.97266-2.75977-3.91114-4.05835-5.77637-5.2649-7.56153-9.81177-14.09278-13.96509-16.39453a.73.73 0 0 1 -.16577-.125.74927.74927 0 0 1 .94067-1.16016c4.44336 2.49219 9.06885 9.13477 14.42114 16.82227 1.29517 1.86035 2.64112 3.79394 4.04761 5.76074a129.871 129.871 0 0 0 15.42163 18.43066.65749.65749 0 0 1 .07544.0625c9.03564 8.59961 18.39429 13.4375 28.61133 14.79a45.29168 45.29168 0 0 0 5.97143.39258 85.41848 85.41848 0 0 0 32.05982-6.26465 82.07047 82.07047 0 0 0 22.09424-13.04683l-16.367-21.63965a42.1322 42.1322 0 0 1 -11.601 10.42871.78412.78412 0 0 1 -.07813.043 49.93307 49.93307 0 0 1 -22.2937 7.21679c-1.74389.14747-3.48437.22266-5.18408.22266-6.36743 0-12.86279-3.06055-20.44141-9.63281-5.792-5.01856-11.47949-11.4043-17.501-18.165-2.09229-2.34863-4.20654-4.72266-6.35083-7.06445a.8171.8171 0 0 1 -.06494-.082c-9.01538-9.84863-18.89453-19.56054-30.04444-23.98828a.7505.7505 0 0 1 -.52758-.71679.75919.75919 0 0 1 1.00292-.70606.531.531 0 0 1 .05347.01856c11.46875 4.5459 21.52661 14.43847 30.68726 24.45117a.73609.73609 0 0 1 .06469.081c2.12671 2.32422 4.22388 4.67871 6.29957 7.00977 5.98828 6.72266 11.64428 13.07324 17.36352 18.0293 7.29028 6.32128 13.47315 9.26562 19.45874 9.26562 1.65747 0 3.35523-.07324 5.04614-.2168a48.43978 48.43978 0 0 0 21.707-7.03906.80705.80705 0 0 1 .07837-.042 39.17829 39.17829 0 0 0 11.66309-10.79.74983.74983 0 0 1 .60254-.35059.798.798 0 0 1 .63061.2959l17.41089 23.02051a.75116.75116 0 0 1 -.08593 1 81.224 81.224 0 0 1 -23.06226 13.78809 86.91007 86.91007 0 0 1 -32.62057 6.37393z"/><path d="m190.97508 111.742q-1.96692 0-3.9021-.13281a51.1104 51.1104 0 0 1 -25.75415-8.91308 39.03973 39.03973 0 0 1 -4.8623-4.05664c-5.20972-4.99024-10.813-12.13575-16.57471-19.63672a.249.249 0 0 1 -.0293-.04883l-1.81052-2.35161c-7.10132-9.23243-13.80909-17.95215-18.91358-21.45606a.2827.2827 0 0 1 -.03784-.03223.24978.24978 0 0 1 -.08057-.18359.26011.26011 0 0 1 .41675-.18555c5.16748 3.55469 11.89233 12.29688 19.01148 21.55274l1.83984 2.38965a.23491.23491 0 0 1 .02978.04883c5.739 7.4707 11.3191 14.585 16.49512 19.543a38.59343 38.59343 0 0 0 4.79859 4.00489 50.62838 50.62838 0 0 0 25.49511 8.82715c10.46045.71386 21.635-1.49122 33.22315-6.55079a89.45941 89.45941 0 0 0 20.31811-12.08105.25009.25009 0 0 1 .32422.38086 90.02441 90.02441 0 0 1 -20.44238 12.15918c-10.23391 4.46773-20.15261 6.72266-29.5447 6.72266z"/><path d="m187.09007 95.89039c-6.66235 0-13.70386-3.05078-21.52661-9.32519-7.69141-6.17578-14.66333-14.38965-19.75391-20.3877-.88794-1.04687-1.72876-2.03711-2.519-2.9541-.91748-1.06641-1.70752-1.96094-2.415-2.73438-6.72412-7.33789-17.01294-17.01367-25.72265-22.16406a.23233.23233 0 0 1 -.0525-.041.25053.25053 0 0 1 -.08032-.1836.25968.25968 0 0 1 .40772-.19336c8.75244 5.18164 19.07324 14.88575 25.81665 22.24414.71118.77832 1.50415 1.67579 2.425 2.7461.79077.917 1.63256 1.90918 2.52124 2.956 5.07763 5.98242 12.03174 14.17578 19.68579 20.32129 7.73047 6.20117 14.66943 9.21582 21.21362 9.21582 1.76416 0 3.5-.07031 5.15918-.209a54.71886 54.71886 0 0 0 23.57471-7.167 48.60189 48.60189 0 0 0 13.07301-10.98235.24964.24964 0 1 1 .38623.31641 49.08613 49.08613 0 0 1 -13.20728 11.09766 55.215 55.215 0 0 1 -23.77661 7.23339c-1.68144.13964-3.43119.21093-5.20927.21093z"/><path d="m137.78 82.64039a.25038.25038 0 0 1 -.18188-.42187 13.73659 13.73659 0 0 0 2.25659-3.47657 41.38953 41.38953 0 0 0 3.37549-15.69043 49.54652 49.54652 0 0 0 -.1294-5.81054.24976.24976 0 0 1 .229-.26953.24217.24217 0 0 1 .26953.22851 50.01934 50.01934 0 0 1 .13037 5.86914 41.896 41.896 0 0 1 -3.42432 15.88965 14.256 14.256 0 0 1 -2.3435 3.60352.2503.2503 0 0 1 -.18188.07812z"/><path d="m153.36033 101.24a.24981.24981 0 0 1 -.14843-.45117c1.27685-.94043 2.3125-1.74121 3.25927-2.52246a29.11984 29.11984 0 0 0 9.01807-11.99219 37.07185 37.07185 0 0 0 1.41138-3.95508.246.246 0 0 1 .311-.168.24937.24937 0 0 1 .168.31055 37.44552 37.44552 0 0 1 -1.42969 4.00586 29.58978 29.58978 0 0 1 -9.16137 12.18555c-.95337.78613-1.99585 1.59277-3.28028 2.53808a.24645.24645 0 0 1 -.14795.04886z"/><path d="m182.40013 116.23024a.24981.24981 0 0 1 -.13086-.46289 15.62352 15.62352 0 0 0 4.61475-4.54883c3.27783-4.7666 4.80786-11.291 5.14672-15.80664a15.42291 15.42291 0 0 0 -.06616-3.74317.25018.25018 0 0 1 .49073-.09765 15.67275 15.67275 0 0 1 .074 3.8789c-.34375 4.58008-1.89893 11.20313-5.23315 16.05176a16.09983 16.09983 0 0 1 -4.76563 4.69141.2456.2456 0 0 1 -.1304.03711z"/><path d="m220.8 110.31031h-.00146a.25012.25012 0 0 1 -.24854-.252 36.08057 36.08057 0 0 0 -.37768-5.2334 72.452 72.452 0 0 0 -4.45411-16.501c-.5686-1.42188-1.15283-2.71387-1.68969-3.73731a.25008.25008 0 1 1 .44287-.23242c.54468 1.03809 1.13623 2.34668 1.71069 3.7832a72.98043 72.98043 0 0 1 4.4856 16.61914 36.59521 36.59521 0 0 1 .38232 5.30567.25007.25007 0 0 1 -.25.24812z"/></svg>